<svg aria-hidden="true" style="position: absolute; width: 0; height: 0; overflow: hidden;" version="1.1"
    xmlns="http://www.w3.org/2000/svg" xmlns:xlink="http://www.w3.org/1999/xlink">
    <defs>
        <symbol id="icon-add" viewBox="0 0 32 32">
            <path
                d="M14.864 17.136h-7.261c-0.321 0-0.59-0.11-0.808-0.329s-0.327-0.49-0.327-0.812c0-0.322 0.109-0.591 0.327-0.806s0.488-0.323 0.808-0.323h7.261v-7.261c0-0.32 0.11-0.591 0.329-0.812s0.49-0.332 0.812-0.332c0.322 0 0.591 0.111 0.806 0.332s0.323 0.492 0.323 0.812v7.261h7.261c0.32 0 0.591 0.11 0.812 0.329s0.332 0.49 0.332 0.812c0 0.322-0.111 0.591-0.332 0.806s-0.492 0.323-0.812 0.323h-7.261v7.261c0 0.321-0.11 0.59-0.329 0.808s-0.49 0.327-0.812 0.327c-0.322 0-0.591-0.109-0.806-0.327s-0.323-0.488-0.323-0.808v-7.261z">
            </path>
        </symbol>
        <symbol id="icon-arrow_back" viewBox="0 0 32 32">
            <path stroke-linejoin="miter" stroke-linecap="butt" stroke-miterlimit="4" stroke-width="1.3333"
                d="M16.010 6.249c0.114 0 0.212 0.035 0.322 0.145 0.11 0.115 0.145 0.217 0.145 0.332-0 0.116-0.035 0.214-0.145 0.324l-8.482 8.482h17.88c0.162 0 0.262 0.047 0.348 0.132 0.083 0.082 0.129 0.177 0.129 0.337s-0.046 0.255-0.129 0.337c-0.085 0.084-0.186 0.131-0.348 0.132h-17.88l8.474 8.473c0.11 0.11 0.147 0.212 0.148 0.335v0.001c0.001 0.089-0.019 0.167-0.074 0.246l-0.069 0.082c-0.107 0.108-0.204 0.143-0.323 0.142-0.126-0.001-0.23-0.041-0.341-0.151l-9.264-9.264c-0.071-0.072-0.105-0.128-0.121-0.167v-0.001c-0.020-0.048-0.031-0.102-0.031-0.165s0.012-0.116 0.031-0.163v-0.001c0.016-0.038 0.050-0.095 0.121-0.167l9.267-9.267c0.121-0.116 0.227-0.152 0.342-0.152z">
            </path>
        </symbol>
        <symbol id="icon-arrow_forward" viewBox="0 0 32 32">
            <path stroke-linejoin="miter" stroke-linecap="butt" stroke-miterlimit="4" stroke-width="1.3333"
                d="M15.993 6.253c0.095 0.001 0.177 0.023 0.259 0.081l0.082 0.070 9.264 9.264c0.071 0.072 0.105 0.128 0.121 0.167v0.001c0.020 0.048 0.031 0.102 0.031 0.165s-0.012 0.116-0.031 0.163v0.001c-0.016 0.038-0.050 0.094-0.121 0.167l-9.272 9.264c-0.122 0.12-0.227 0.155-0.337 0.155-0.108-0-0.204-0.033-0.315-0.147l-0.007-0.007-0.069-0.081c-0.056-0.079-0.075-0.157-0.075-0.243s0.020-0.163 0.075-0.242l0.069-0.081 8.482-8.482h-17.88c-0.163-0-0.259-0.047-0.34-0.128h-0.001c-0.081-0.081-0.128-0.179-0.128-0.341s0.046-0.26 0.128-0.341h0.001c0.081-0.081 0.177-0.127 0.34-0.128h17.88l-8.474-8.474c-0.082-0.082-0.124-0.16-0.141-0.246l-0.008-0.090c-0.001-0.12 0.034-0.218 0.141-0.326l0.001-0.001c0.107-0.107 0.205-0.143 0.324-0.142z">
            </path>
        </symbol>
        <symbol id="icon-close" viewBox="0 0 32 32">
            <path stroke-linejoin="miter" stroke-linecap="butt" stroke-miterlimit="4" stroke-width="1.3333"
                d="M23.466 7.9c0.219 0 0.355 0.065 0.462 0.172s0.172 0.242 0.172 0.461c0 0.219-0.065 0.355-0.172 0.462l-7.005 7.005 7.005 7.004c0.107 0.107 0.172 0.243 0.172 0.462s-0.065 0.355-0.172 0.462-0.243 0.172-0.462 0.172c-0.219-0-0.355-0.065-0.462-0.172l-7.004-7.005-7.005 7.005c-0.107 0.107-0.243 0.172-0.462 0.172s-0.354-0.065-0.461-0.172c-0.107-0.107-0.172-0.243-0.172-0.462s0.065-0.355 0.172-0.462l7.004-7.004-7.004-7.005c-0.107-0.107-0.172-0.243-0.172-0.462s0.065-0.354 0.172-0.461 0.242-0.172 0.461-0.172c0.219 0 0.355 0.065 0.462 0.172l7.005 7.004 7.004-7.004c0.107-0.107 0.243-0.172 0.462-0.172z">
            </path>
        </symbol>
        <symbol id="icon-company-Logo" viewBox="0 0 75 32">
            <path
                d="M13.139 18.964c-0.030-0.058-0.053-0.104-0.076-0.148-0.287-0.551-0.979-0.909-1.593-0.824-0.527 0.073-0.967 0.511-1.121 1.13-0.166 0.668-0.046 1.311 0.194 1.937 0.392 1.020 1.012 1.893 1.776 2.665 0.528 0.534 0.95 0.525 1.47-0.018 0.722-0.754 1.308-1.601 1.714-2.567 0.24-0.569 0.416-1.155 0.443-1.777 0.019-0.449-0.039-0.882-0.294-1.267-0.325-0.49-0.859-0.634-1.384-0.375-0.327 0.161-0.585 0.401-0.789 0.698-0.117 0.171-0.219 0.351-0.339 0.546zM23.307 21.832c-0.012 0.841-0.202 1.643-0.589 2.388-0.657 1.264-1.608 2.243-2.882 2.899-1.255 0.647-2.541 0.721-3.856 0.206-0.533-0.209-1.065-0.425-1.586-0.665-0.945-0.436-1.886-0.432-2.853-0.070-0.679 0.254-1.368 0.486-2.064 0.687-0.721 0.209-1.463 0.285-2.215 0.199-0.65-0.074-1.2-0.362-1.676-0.798-0.607-0.556-1.093-1.205-1.399-1.97-0.393-0.981-0.298-1.927 0.273-2.821 0.448-0.7 1.052-1.258 1.638-1.836 0.426-0.42 0.842-0.851 1.235-1.302 0.452-0.521 0.723-1.149 0.947-1.794 0.208-0.599 0.397-1.204 0.602-1.804 0.148-0.433 0.42-0.794 0.689-1.159 0.647-0.879 1.57-1.264 2.589-1.49 1.208-0.268 2.261 0.078 3.159 0.872 0.553 0.489 1.031 1.061 1.546 1.594 0.876 0.907 1.806 1.754 2.847 2.469 0.518 0.356 1.062 0.675 1.577 1.037 0.736 0.518 1.356 1.146 1.735 1.98 0.198 0.437 0.277 0.9 0.283 1.377z">
            </path>
            <path
                d="M11.447 9.358c0.002 0.673-0.117 1.401-0.436 2.084-0.342 0.731-0.836 1.309-1.648 1.534-0.669 0.185-1.286 0.036-1.861-0.323-0.757-0.473-1.269-1.159-1.65-1.948-0.553-1.146-0.766-2.358-0.653-3.625 0.067-0.748 0.279-1.448 0.697-2.084 0.721-1.097 2.017-1.407 3.144-0.74 0.731 0.433 1.243 1.066 1.633 1.804 0.531 1.007 0.784 2.084 0.775 3.298z">
            </path>
            <path
                d="M19.316 7.351c0.001 1.372-0.252 2.524-0.876 3.577-0.349 0.589-0.795 1.090-1.412 1.413-0.902 0.471-1.895 0.299-2.603-0.438-0.561-0.584-0.865-1.294-1.028-2.071-0.281-1.344-0.136-2.657 0.34-3.934 0.23-0.618 0.567-1.184 1.051-1.64 0.446-0.42 0.953-0.75 1.586-0.802 0.805-0.067 1.437 0.274 1.942 0.877 0.521 0.622 0.781 1.359 0.91 2.145 0.056 0.339 0.072 0.685 0.091 0.873z">
            </path>
            <path
                d="M0.444 13.966c0.011-0.613 0.128-1.189 0.492-1.689 0.476-0.653 1.143-0.894 1.93-0.845 0.797 0.050 1.475 0.394 2.084 0.88 1.085 0.865 1.802 1.969 2.088 3.336 0.126 0.604 0.136 1.215-0.076 1.803-0.364 1.012-1.193 1.535-2.274 1.451-0.672-0.052-1.264-0.321-1.807-0.704-1.171-0.825-1.924-1.947-2.306-3.318-0.082-0.294-0.090-0.609-0.132-0.915z">
            </path>
            <path
                d="M25.073 12.054c-0.181 1.904-0.956 3.375-2.458 4.435-0.417 0.294-0.886 0.465-1.398 0.517-0.866 0.088-1.654-0.4-1.98-1.234-0.286-0.734-0.27-1.484-0.089-2.231 0.346-1.438 1.119-2.599 2.334-3.451 0.538-0.377 1.148-0.531 1.804-0.476 0.762 0.064 1.407 0.636 1.63 1.477 0.090 0.34 0.116 0.697 0.158 0.964z">
            </path>
            <path
                d="M60.777 18.368h1.752l-2.31 2.795 2.514 3.035h-1.804l-2.383-2.957v2.957h-1.591v-5.831h1.591v2.832l2.232-2.832z">
            </path>
            <path
                d="M55.854 21.273c0 0.487-0.066 0.918-0.198 1.293-0.129 0.375-0.318 0.694-0.568 0.954-0.247 0.257-0.546 0.452-0.897 0.584-0.348 0.132-0.741 0.198-1.179 0.198-0.41 0-0.788-0.066-1.132-0.198-0.341-0.132-0.638-0.327-0.892-0.584-0.25-0.261-0.445-0.579-0.584-0.954-0.136-0.376-0.203-0.807-0.203-1.293 0-0.647 0.115-1.194 0.344-1.643s0.556-0.789 0.98-1.022c0.424-0.233 0.93-0.349 1.518-0.349 0.546 0 1.029 0.116 1.45 0.349 0.424 0.233 0.756 0.574 0.996 1.022 0.243 0.448 0.365 0.996 0.365 1.643zM51.823 21.273c0 0.382 0.042 0.704 0.125 0.965s0.214 0.457 0.391 0.589c0.177 0.132 0.408 0.198 0.694 0.198 0.282 0 0.509-0.066 0.683-0.198 0.177-0.132 0.306-0.329 0.386-0.589 0.083-0.261 0.125-0.582 0.125-0.965 0-0.386-0.042-0.706-0.125-0.96-0.080-0.257-0.209-0.45-0.386-0.579s-0.409-0.193-0.694-0.193c-0.421 0-0.727 0.144-0.918 0.433-0.188 0.289-0.282 0.721-0.282 1.299z">
            </path>
            <path d="M49.1 18.368v5.831h-1.596v-4.636h-2.112v4.636h-1.591v-5.831h5.299z"></path>
            <path
                d="M39.946 18.248c0.782 0 1.382 0.17 1.799 0.511s0.626 0.859 0.626 1.554v3.885h-1.111l-0.308-0.793h-0.042c-0.167 0.209-0.337 0.379-0.511 0.511s-0.374 0.229-0.6 0.292c-0.226 0.063-0.501 0.094-0.824 0.094-0.344 0-0.654-0.066-0.928-0.198-0.271-0.132-0.485-0.334-0.642-0.605-0.156-0.275-0.235-0.622-0.235-1.043 0-0.619 0.217-1.074 0.652-1.366 0.435-0.296 1.086-0.459 1.956-0.49l1.012-0.031v-0.256c0-0.306-0.080-0.53-0.24-0.673s-0.382-0.214-0.668-0.214c-0.282 0-0.558 0.040-0.829 0.12s-0.542 0.181-0.814 0.302l-0.527-1.074c0.309-0.163 0.655-0.292 1.038-0.386 0.386-0.094 0.784-0.141 1.194-0.141zM40.791 21.497l-0.615 0.021c-0.515 0.014-0.873 0.106-1.074 0.276-0.198 0.17-0.297 0.395-0.297 0.673 0 0.243 0.071 0.417 0.214 0.522 0.143 0.101 0.329 0.151 0.558 0.151 0.341 0 0.628-0.101 0.86-0.303 0.236-0.202 0.355-0.488 0.355-0.86v-0.48z">
            </path>
            <path
                d="M35.972 24.198h-1.612v-6.279h-1.867c-0.042 0.327-0.087 0.683-0.136 1.069s-0.099 0.775-0.151 1.168c-0.052 0.393-0.108 0.767-0.167 1.121-0.056 0.355-0.111 0.666-0.167 0.934-0.090 0.445-0.214 0.824-0.37 1.137-0.153 0.309-0.363 0.546-0.631 0.709-0.264 0.163-0.61 0.245-1.038 0.245-0.143 0-0.28-0.010-0.412-0.031-0.129-0.021-0.249-0.049-0.36-0.083v-1.325c0.090 0.031 0.181 0.057 0.271 0.078 0.090 0.017 0.189 0.026 0.297 0.026 0.139 0 0.254-0.045 0.344-0.136 0.094-0.094 0.177-0.252 0.25-0.475 0.073-0.226 0.146-0.537 0.219-0.934 0.031-0.174 0.073-0.419 0.125-0.735 0.052-0.32 0.111-0.694 0.177-1.121 0.066-0.431 0.134-0.9 0.203-1.408 0.073-0.508 0.143-1.036 0.209-1.585h4.814v7.625z">
            </path>
            <path
                d="M71.797 8.483c0.782 0 1.382 0.17 1.799 0.511s0.626 0.859 0.626 1.554v3.885h-1.111l-0.307-0.793h-0.042c-0.167 0.209-0.337 0.379-0.511 0.511s-0.374 0.229-0.6 0.292-0.501 0.094-0.824 0.094c-0.344 0-0.654-0.066-0.929-0.198-0.271-0.132-0.485-0.334-0.641-0.605-0.156-0.275-0.235-0.622-0.235-1.043 0-0.619 0.217-1.074 0.652-1.366 0.435-0.296 1.087-0.459 1.956-0.49l1.011-0.031v-0.256c0-0.306-0.080-0.53-0.24-0.673s-0.382-0.214-0.667-0.214c-0.281 0-0.558 0.040-0.829 0.12s-0.542 0.181-0.813 0.302l-0.527-1.074c0.309-0.163 0.655-0.292 1.038-0.386 0.385-0.094 0.784-0.141 1.194-0.141zM72.642 11.732l-0.615 0.021c-0.515 0.014-0.873 0.106-1.074 0.276-0.199 0.17-0.297 0.395-0.297 0.673 0 0.243 0.071 0.417 0.213 0.522 0.143 0.101 0.329 0.151 0.559 0.151 0.341 0 0.627-0.101 0.86-0.302 0.237-0.202 0.355-0.489 0.355-0.861v-0.48z">
            </path>
            <path
                d="M66.832 8.603h1.752l-2.31 2.795 2.513 3.035h-1.804l-2.384-2.957v2.957h-1.591v-5.831h1.591v2.832l2.232-2.832z">
            </path>
            <path d="M57.742 8.603v2.243h2.222v-2.243h1.591v5.831h-1.591v-2.404h-2.222v2.404h-1.591v-5.831h1.591z">
            </path>
            <path
                d="M50.205 8.603v2.305c0 0.118-0.005 0.268-0.016 0.448-0.007 0.177-0.017 0.358-0.031 0.542s-0.028 0.349-0.042 0.495c-0.014 0.146-0.024 0.245-0.031 0.297l2.691-4.089h1.914v5.831h-1.538v-2.326c0-0.191 0.007-0.402 0.021-0.631 0.014-0.233 0.030-0.452 0.047-0.657s0.030-0.36 0.036-0.464l-2.681 4.078h-1.909v-5.831h1.538z">
            </path>
            <path d="M47.791 9.797h-1.909v4.636h-1.591v-4.636h-1.914v-1.194h5.413v1.194z"></path>
            <path
                d="M39.113 8.483c0.782 0 1.382 0.17 1.799 0.511s0.626 0.859 0.626 1.554v3.885h-1.111l-0.308-0.793h-0.042c-0.167 0.209-0.337 0.379-0.511 0.511s-0.374 0.229-0.6 0.292c-0.226 0.063-0.501 0.094-0.824 0.094-0.344 0-0.654-0.066-0.928-0.198-0.271-0.132-0.485-0.334-0.641-0.605-0.156-0.275-0.235-0.622-0.235-1.043 0-0.619 0.217-1.074 0.652-1.366 0.435-0.296 1.087-0.459 1.956-0.49l1.012-0.031v-0.256c0-0.306-0.080-0.53-0.24-0.673s-0.382-0.214-0.668-0.214c-0.282 0-0.558 0.040-0.829 0.12s-0.542 0.181-0.814 0.302l-0.527-1.074c0.309-0.163 0.655-0.292 1.038-0.386 0.386-0.094 0.784-0.141 1.194-0.141zM39.958 11.732l-0.615 0.021c-0.515 0.014-0.873 0.106-1.074 0.276-0.198 0.17-0.297 0.395-0.297 0.673 0 0.243 0.071 0.417 0.214 0.522 0.143 0.101 0.329 0.151 0.558 0.151 0.341 0 0.628-0.101 0.86-0.302 0.236-0.202 0.355-0.489 0.355-0.861v-0.48z">
            </path>
            <path
                d="M36.103 14.434h-1.846l-1.773-2.884-1.773 2.884h-1.731l2.529-3.932-2.368-3.692h1.784l1.643 2.743 1.612-2.743h1.742l-2.394 3.781 2.576 3.844z">
            </path>
        </symbol>
        <symbol id="icon-facebook" viewBox="0 0 32 32">
            <path
                d="M29.333 16.405c0-7.409-5.969-13.415-13.333-13.415s-13.333 6.006-13.333 13.415c0 6.696 4.876 12.245 11.25 13.252v-9.374h-3.385v-3.878h3.385v-2.955c0-3.362 1.991-5.219 5.036-5.219 1.459 0 2.985 0.262 2.985 0.262v3.301h-1.681c-1.656 0-2.173 1.034-2.173 2.095v2.516h3.698l-0.591 3.878h-3.107v9.374c6.374-1.006 11.25-6.556 11.25-13.252z">
            </path>
        </symbol>
        <symbol id="icon-favicon" viewBox="0 0 32 32">
            <path
                d="M16.281 19.456c-0.034-0.066-0.059-0.116-0.085-0.167-0.323-0.62-1.101-1.022-1.792-0.927-0.593 0.082-1.088 0.575-1.261 1.271-0.187 0.751-0.052 1.475 0.218 2.179 0.441 1.148 1.138 2.13 1.998 2.998 0.594 0.601 1.068 0.591 1.653-0.021 0.812-0.849 1.471-1.802 1.929-2.888 0.27-0.64 0.468-1.299 0.498-1.999 0.022-0.505-0.043-0.992-0.331-1.426-0.365-0.551-0.966-0.713-1.557-0.422-0.367 0.181-0.658 0.451-0.887 0.786-0.131 0.192-0.246 0.395-0.382 0.615zM27.721 22.683c-0.014 0.947-0.227 1.848-0.663 2.686-0.74 1.421-1.809 2.523-3.242 3.262-1.412 0.728-2.859 0.811-4.338 0.232-0.6-0.235-1.199-0.478-1.784-0.748-1.063-0.49-2.122-0.486-3.209-0.078-0.764 0.286-1.539 0.547-2.322 0.773-0.811 0.235-1.646 0.32-2.492 0.224-0.732-0.084-1.35-0.407-1.885-0.898-0.683-0.625-1.229-1.355-1.574-2.216-0.442-1.104-0.336-2.168 0.308-3.174 0.504-0.787 1.184-1.415 1.843-2.065 0.479-0.472 0.948-0.957 1.389-1.465 0.509-0.585 0.813-1.292 1.065-2.018 0.234-0.674 0.446-1.354 0.677-2.029 0.167-0.487 0.473-0.893 0.775-1.304 0.728-0.989 1.766-1.422 2.912-1.677 1.359-0.302 2.543 0.088 3.554 0.981 0.622 0.55 1.16 1.194 1.739 1.793 0.986 1.020 2.032 1.973 3.203 2.778 0.583 0.401 1.195 0.76 1.773 1.167 0.828 0.582 1.526 1.289 1.952 2.227 0.223 0.491 0.311 1.012 0.319 1.549z">
            </path>
            <path
                d="M14.377 8.649c0.002 0.758-0.132 1.576-0.491 2.344-0.384 0.822-0.94 1.472-1.854 1.725-0.752 0.208-1.447 0.040-2.094-0.364-0.852-0.532-1.428-1.304-1.856-2.191-0.622-1.289-0.862-2.653-0.734-4.078 0.075-0.842 0.313-1.629 0.784-2.345 0.811-1.234 2.269-1.583 3.537-0.832 0.822 0.487 1.399 1.199 1.837 2.030 0.597 1.133 0.882 2.344 0.872 3.71z">
            </path>
            <path
                d="M23.231 6.392c0.001 1.544-0.284 2.839-0.986 4.024-0.393 0.663-0.895 1.227-1.589 1.59-1.015 0.53-2.132 0.336-2.929-0.493-0.631-0.656-0.973-1.456-1.156-2.33-0.317-1.512-0.153-2.989 0.382-4.425 0.259-0.695 0.638-1.332 1.182-1.845 0.501-0.473 1.073-0.843 1.784-0.903 0.906-0.075 1.617 0.309 2.185 0.987 0.586 0.699 0.878 1.528 1.024 2.413 0.063 0.382 0.081 0.77 0.103 0.982z">
            </path>
            <path
                d="M2 13.834c0.013-0.689 0.144-1.338 0.554-1.9 0.536-0.735 1.285-1.006 2.171-0.95 0.896 0.056 1.66 0.443 2.345 0.99 1.22 0.973 2.027 2.215 2.349 3.752 0.142 0.68 0.153 1.366-0.085 2.029-0.409 1.139-1.342 1.727-2.558 1.633-0.756-0.059-1.422-0.361-2.033-0.792-1.317-0.928-2.165-2.19-2.594-3.732-0.092-0.331-0.101-0.685-0.148-1.029z">
            </path>
            <path
                d="M29.707 11.683c-0.204 2.141-1.075 3.797-2.765 4.989-0.469 0.331-0.997 0.523-1.573 0.581-0.975 0.099-1.861-0.45-2.227-1.389-0.322-0.825-0.303-1.67-0.101-2.51 0.39-1.617 1.259-2.924 2.626-3.882 0.605-0.424 1.291-0.597 2.029-0.536 0.858 0.072 1.583 0.715 1.834 1.662 0.101 0.383 0.13 0.784 0.177 1.085z">
            </path>
        </symbol>
        <symbol id="icon-instagram" viewBox="0 0 32 32">
            <path
                d="M15.998 6.161c3.206 0 3.585 0.014 4.846 0.071 1.172 0.052 1.804 0.248 2.226 0.412 0.558 0.216 0.961 0.478 1.378 0.895 0.422 0.422 0.679 0.82 0.9 1.378 0.164 0.422 0.361 1.059 0.412 2.226 0.056 1.266 0.071 1.645 0.071 4.847s-0.014 3.585-0.071 4.847c-0.052 1.172-0.248 1.804-0.412 2.227-0.216 0.558-0.478 0.961-0.895 1.377-0.422 0.422-0.82 0.679-1.378 0.9-0.422 0.164-1.060 0.361-2.226 0.412-1.266 0.056-1.645 0.071-4.847 0.071s-3.585-0.014-4.847-0.071c-1.172-0.052-1.804-0.248-2.226-0.412-0.558-0.216-0.961-0.478-1.378-0.895-0.422-0.422-0.679-0.82-0.9-1.378-0.164-0.422-0.361-1.060-0.412-2.226-0.056-1.266-0.071-1.645-0.071-4.847s0.014-3.585 0.071-4.847c0.052-1.172 0.248-1.804 0.412-2.226 0.216-0.558 0.478-0.961 0.895-1.378 0.422-0.422 0.82-0.679 1.378-0.9 0.422-0.164 1.059-0.361 2.226-0.412 1.261-0.056 1.641-0.071 4.847-0.071h0.001zM15.998 4.001c-3.258 0-3.665 0.014-4.945 0.071-1.275 0.056-2.151 0.262-2.91 0.558-0.792 0.309-1.462 0.717-2.127 1.387-0.67 0.666-1.078 1.336-1.387 2.123-0.295 0.764-0.502 1.636-0.558 2.91-0.056 1.285-0.071 1.692-0.071 4.949s0.014 3.665 0.071 4.945c0.056 1.275 0.262 2.151 0.558 2.91 0.31 0.792 0.717 1.462 1.387 2.127 0.665 0.665 1.336 1.078 2.123 1.383 0.764 0.295 1.636 0.502 2.91 0.558 1.279 0.056 1.687 0.071 4.945 0.071s3.666-0.014 4.945-0.071c1.275-0.056 2.151-0.262 2.91-0.558 0.787-0.305 1.458-0.717 2.123-1.383s1.078-1.336 1.383-2.123c0.295-0.764 0.502-1.635 0.558-2.91 0.056-1.279 0.071-1.687 0.071-4.945s-0.014-3.665-0.071-4.945c-0.056-1.275-0.262-2.151-0.558-2.91-0.295-0.797-0.703-1.467-1.373-2.133-0.665-0.665-1.336-1.078-2.123-1.383-0.764-0.295-1.635-0.502-2.91-0.558-1.284-0.061-1.692-0.075-4.949-0.075l-0.001 0.001z">
            </path>
            <path
                d="M15.997 9.836c-3.402 0-6.163 2.76-6.163 6.163s2.76 6.163 6.163 6.163c3.403 0 6.163-2.76 6.163-6.163s-2.76-6.163-6.163-6.163zM15.997 19.997c-2.208 0-3.998-1.79-3.998-3.998s1.79-3.998 3.998-3.998c2.208 0 3.998 1.79 3.998 3.998s-1.79 3.998-3.998 3.998z">
            </path>
            <path
                d="M23.842 9.592c0 0.795-0.644 1.439-1.439 1.439s-1.439-0.644-1.439-1.439 0.644-1.439 1.439-1.439c0.795 0 1.439 0.644 1.439 1.439z">
            </path>
        </symbol>
        <symbol id="icon-menu" viewBox="0 0 32 32">
            <path
                d="M4.936 24.295c-0.321 0-0.59-0.11-0.808-0.329s-0.327-0.493-0.327-0.82c0-0.322 0.109-0.591 0.327-0.807s0.488-0.323 0.808-0.323h22.127c0.321 0 0.591 0.11 0.812 0.329s0.331 0.49 0.331 0.812c0 0.328-0.11 0.599-0.331 0.814s-0.492 0.323-0.812 0.323h-22.127zM4.936 17.136c-0.321 0-0.59-0.11-0.808-0.329s-0.327-0.49-0.327-0.812c0-0.322 0.109-0.591 0.327-0.806s0.488-0.323 0.808-0.323h22.127c0.321 0 0.591 0.11 0.812 0.329s0.331 0.49 0.331 0.812c0 0.322-0.11 0.591-0.331 0.806s-0.492 0.323-0.812 0.323h-22.127zM4.936 9.984c-0.321 0-0.59-0.11-0.808-0.329s-0.327-0.493-0.327-0.82c0-0.322 0.109-0.591 0.327-0.806s0.488-0.323 0.808-0.323h22.127c0.321 0 0.591 0.11 0.812 0.329s0.331 0.49 0.331 0.812c0 0.328-0.11 0.599-0.331 0.815s-0.492 0.323-0.812 0.323h-22.127z">
            </path>
        </symbol>
        <symbol id="icon-star-filled" viewBox="0 0 32 32">
            <path
                d="M14.761 4.816c0.458-1.089 2.019-1.089 2.478 0l2.705 6.425c0.193 0.459 0.63 0.772 1.132 0.812l7.021 0.556c1.19 0.094 1.672 1.561 0.766 2.328l-5.349 4.527c-0.382 0.323-0.549 0.831-0.432 1.314l1.634 6.769c0.277 1.147-0.986 2.053-2.004 1.439l-6.011-3.627c-0.429-0.259-0.969-0.259-1.399 0l-6.011 3.627c-1.018 0.615-2.281-0.292-2.004-1.439l1.634-6.769c0.117-0.483-0.050-0.991-0.432-1.314l-5.35-4.527c-0.906-0.767-0.424-2.234 0.766-2.328l7.021-0.556c0.502-0.040 0.938-0.353 1.132-0.812l2.705-6.425z">
            </path>
        </symbol>
        <symbol id="icon-star-outline" viewBox="0 0 32 32">
            <path stroke-linejoin="miter" stroke-linecap="butt" stroke-miterlimit="4" stroke-width="2.6667"
                d="M16.010 5.335l2.704 6.424c0.389 0.924 1.263 1.545 2.255 1.624l7.011 0.555-5.329 4.509c-0.763 0.646-1.102 1.668-0.866 2.646l1.63 6.754c-0.002 0.001-0.003 0.003-0.005 0.004-0.002-0.001-0.006-0.003-0.010-0.005l-6.012-3.628c-0.853-0.515-1.923-0.515-2.776 0l-6.012 3.628c-0.005 0.003-0.008 0.004-0.010 0.005-0.002-0.001-0.004-0.002-0.007-0.004l1.631-6.754c0.221-0.916-0.062-1.871-0.728-2.519l-0.138-0.126-5.331-4.509 7.012-0.555c0.992-0.079 1.866-0.7 2.255-1.624l2.703-6.424c0.003-0.001 0.007-0.001 0.012-0.001s0.007 0.001 0.010 0.001z">
            </path>
        </symbol>
        <symbol id="icon-star-half" viewBox="0 0 24 24">
            <path
                d="M11.5312 3.80664C11.7032 3.39816 12.2968 3.39816 12.4688 3.80664L14.4971 8.625C14.7155 9.14358 15.2076 9.49471 15.7676 9.53906L21.0332 9.95605C21.4909 9.99232 21.6545 10.5412 21.3242 10.8213L17.3115 14.2168C16.8819 14.5804 16.6919 15.1542 16.8242 15.7021L18.0508 20.7783C18.1502 21.1902 17.6892 21.5518 17.291 21.3115H17.29L12.7832 18.5918C12.3023 18.3016 11.6977 18.3016 11.2168 18.5918L6.70898 21.3115C6.31078 21.5518 5.84983 21.1902 5.94922 20.7783L7.17578 15.7021C7.30809 15.1543 7.11814 14.5805 6.68848 14.2168L2.67578 10.8213C2.34544 10.5412 2.5091 9.99231 2.9668 9.95605L8.23242 9.53906C8.79243 9.49471 9.28456 9.14369 9.50293 8.625L11.5312 3.80664Z"
                fill="none" stroke="currentColor" />
            <!-- half fill (left half) -->
            <path
                d="M11.5312 3.80664C11.7032 3.39816 12.2968 3.39816 12.4688 3.80664L14.4971 8.625C14.7155 9.14358 15.2076 9.49471 15.7676 9.53906L21.0332 9.95605C21.4909 9.99232 21.6545 10.5412 21.3242 10.8213L17.3115 14.2168C16.8819 14.5804 16.6919 15.1542 16.8242 15.7021L18.0508 20.7783C18.1502 21.1902 17.6892 21.5518 17.291 21.3115H17.29L12.7832 18.5918C12.3023 18.3016 11.6977 18.3016 11.2168 18.5918L6.70898 21.3115C6.31078 21.5518 5.84983 21.1902 5.94922 20.7783L7.17578 15.7021C7.30809 15.1543 7.11814 14.5805 6.68848 14.2168L2.67578 10.8213C2.34544 10.5412 2.5091 9.99231 2.9668 9.95605L8.23242 9.53906C8.79243 9.49471 9.28456 9.14369 9.50293 8.625L11.5312 3.80664Z"
                fill="currentColor" clip-path="url(#icon-star-half__clip)" />
        </symbol>
    </defs>
</svg>