<svg width="28" height="28" viewBox="0 0 28 28" fill="none" xmlns="http://www.w3.org/2000/svg">
<path d="M14.2812 17.4565C14.2476 17.3907 14.2221 17.34 14.1959 17.2897C13.8729 16.6699 13.0948 16.2674 12.4038 16.3626C11.8105 16.4443 11.3161 16.9376 11.1424 17.6341C10.9552 18.385 11.0904 19.109 11.3605 19.8129C11.8012 20.9608 12.4989 21.9426 13.3584 22.8114C13.9528 23.4122 14.4268 23.4021 15.0118 22.7908C15.8241 21.9421 16.4832 20.9892 16.9405 19.9031C17.2101 19.2632 17.4086 18.6041 17.4387 17.9043C17.4604 17.399 17.3953 16.9122 17.1077 16.4784C16.7424 15.9276 16.1414 15.7653 15.5503 16.0561C15.1829 16.2369 14.8924 16.5069 14.6631 16.8417C14.5316 17.0338 14.4168 17.237 14.2812 17.4565ZM25.7205 20.6832C25.707 21.6297 25.4937 22.5314 25.0579 23.3692C24.3183 24.7906 23.2484 25.8924 21.8159 26.6309C20.404 27.3589 18.9569 27.4422 17.4784 26.8627C16.8782 26.6273 16.2798 26.3843 15.6946 26.1146C14.6314 25.6244 13.5726 25.6291 12.4853 26.0363C11.7216 26.3223 10.9465 26.5831 10.1635 26.8096C9.35243 27.0443 8.51759 27.13 7.6714 27.0334C6.93989 26.95 6.3219 26.626 5.78646 26.1356C5.10356 25.5103 4.5571 24.7802 4.21229 23.9192C3.77036 22.8157 3.87654 21.7511 4.51995 20.7457C5.02364 19.9584 5.70373 19.3303 6.36256 18.6806C6.84148 18.2083 7.31034 17.7232 7.7515 17.2159C8.26045 16.6303 8.5644 15.9237 8.81633 15.1978C9.05021 14.5242 9.26256 13.8433 9.49337 13.1686C9.66012 12.6812 9.96608 12.2758 10.2684 11.8648C10.9963 10.8757 12.0345 10.4428 13.1809 10.1881C14.5398 9.88602 15.7241 10.2756 16.7346 11.1694C17.3564 11.7192 17.8946 12.3634 18.4734 12.9623C19.4592 13.9825 20.5049 14.9353 21.6765 15.74C22.2596 16.1406 22.8717 16.4997 23.45 16.9067C24.2775 17.4892 24.9757 18.196 25.4017 19.1342C25.6249 19.6256 25.713 20.1464 25.7205 20.6832Z" fill="#F6F4F1"/>
<path d="M12.3774 6.64928C12.3797 7.4069 12.2454 8.22502 11.8864 8.99366C11.5022 9.81579 10.9463 10.4661 10.0322 10.7191C9.28001 10.9274 8.58558 10.7596 7.93823 10.3552C7.08656 9.82341 6.51062 9.05156 6.08229 8.16391C5.46029 6.87474 5.22057 5.51094 5.34806 4.08572C5.42336 3.24381 5.66144 2.45687 6.13182 1.74108C6.94303 0.506681 8.40105 0.157785 9.66887 0.908947C10.4914 1.39633 11.0676 2.10783 11.5057 2.9389C12.1028 4.07149 12.3872 5.28282 12.3774 6.64928Z" fill="#F6F4F1"/>
<path d="M21.2312 4.392C21.2325 5.93572 20.9476 7.23096 20.2454 8.41602C19.8528 9.07875 19.3507 9.64279 18.6564 10.0056C17.6415 10.5359 16.5243 10.3416 15.7276 9.51228C15.0969 8.85583 14.7547 8.0567 14.5714 7.18215C14.2547 5.67018 14.4182 4.19325 14.9536 2.7567C15.2127 2.06144 15.5913 1.42517 16.1354 0.911887C16.6368 0.438922 17.208 0.068456 17.9198 0.00933715C18.8254 -0.065882 19.5364 0.317916 20.1049 0.996239C20.6907 1.69542 20.9833 2.52457 21.1285 3.40962C21.1911 3.79122 21.2099 4.18001 21.2312 4.392Z" fill="#F6F4F1"/>
<path d="M0 11.8336C0.0125298 11.1441 0.144113 10.4959 0.554041 9.93363C1.08963 9.19869 1.83951 8.92763 2.72546 8.98313C3.6219 9.03929 4.385 9.42655 5.07013 9.97281C6.2905 10.9459 7.0976 12.1882 7.41869 13.7253C7.56084 14.4053 7.5714 15.0917 7.33351 15.7541C6.92456 16.8928 5.99163 17.481 4.77574 17.3868C4.01928 17.3282 3.35345 17.0258 2.74251 16.5952C1.42559 15.6669 0.577723 14.4051 0.148406 12.8627C0.0562304 12.5316 0.0472844 12.1772 0 11.8336Z" fill="#F6F4F1"/>
<path d="M27.7074 9.68291C27.5034 11.8243 26.6322 13.4797 24.9427 14.672C24.4735 15.0031 23.9458 15.1947 23.3695 15.2531C22.3949 15.352 21.5087 14.8033 21.1423 13.8644C20.8203 13.0391 20.839 12.1945 21.0416 11.3542C21.4314 9.73667 22.3009 8.43006 23.6673 7.4722C24.2721 7.04817 24.9584 6.87506 25.6963 6.93664C26.5541 7.00818 27.2793 7.65179 27.53 8.59828C27.6314 8.981 27.6602 9.3827 27.7074 9.68291Z" fill="#F6F4F1"/>
</svg>
